# xmcd
#
# Track frame offsets: 
#        150
#        17170
#        39170
#        56715
#        78925
#        97857
#        114599
#        134326
#        151968
#        175618
#        195255
#        213887
#        235857
#        256342
#
# Disc length: 3683 seconds
#
# Revision: 1
# Processed by: cddbd v1.5.2PL0 Copyright (c) Steve Scherf et al.
# Submitted via: ExactAudioCopy v1.0b3
#
DISCID=a40e610e
DTITLE=Colin James - Limelight
DYEAR=2005
DGENRE=Blues
TTITLE0=Better Way To Heaven
TTITLE1=Watchin' The River Flow
TTITLE2=Limelight
TTITLE3=Far Away Like A Radio
TTITLE4=On My Way Back To You
TTITLE5=When I Write The Book
TTITLE6=Misplaced Heart
TTITLE7=Speakeasy
TTITLE8=Healing Time
TTITLE9=Travellin'
TTITLE10=Shadow Of Love
TTITLE11=It Fills You Up
TTITLE12=Weeping Willow Tree
TTITLE13=Into The Mystic
EXTD=
EXTT0=
EXTT1=
EXTT2=
EXTT3=
EXTT4=
EXTT5=
EXTT6=
EXTT7=
EXTT8=
EXTT9=
EXTT10=
EXTT11=
EXTT12=
EXTT13=
PLAYORDER=
